<svg version="1.2" xmlns="http://www.w3.org/2000/svg" viewBox="0 0 171 36" width="200" height="42">
	<title>logo-svg</title>
	<defs>
		<linearGradient id="g1" x2="1" gradientUnits="userSpaceOnUse" gradientTransform="matrix(0,30,-30,0,15,3)">
			<stop offset="0" stop-color="#877eff"/>
			<stop offset=".461" stop-color="#685dff"/>
			<stop offset="1" stop-color="#3121ff"/>
		</linearGradient>
	</defs>
	<style>
		tspan { white-space:pre } 
		.s0 { fill: url(#g1) } 
		.t1 { font-size: 24px;fill: #ffffff;font-weight: 400;font-family: "DayPosterBlack", "DayPosterBlack" } 
	</style>
	<path id="Layer" fill-rule="evenodd" class="s0" d="m30 18c0 8.3-6.7 15-15 15-8.3 0-15-6.7-15-15 0-8.3 6.7-15 15-15 8.3 0 15 6.7 15 15zm-15-12.8c-7.1 0-12.8 5.7-12.8 12.8 0 7.1 5.7 12.8 12.8 12.8 7.1 0 12.8-5.7 12.8-12.8 0-7.1-5.7-12.8-12.8-12.8zm8.3 6.1c0 0.8-0.7 1.5-1.6 1.5-0.8 0-1.5-0.7-1.5-1.5 0-0.9 0.7-1.6 1.5-1.6 0.9 0 1.6 0.7 1.6 1.6zm-10.1 0.1c3.7-1 7.4 1.2 8.4 4.8 1 3.7-1.2 7.4-4.8 8.4-3.7 1-7.4-1.2-8.4-4.8-1-3.7 1.2-7.4 4.8-8.4zm-2.7 7.8c0.7 2.5 3.2 4 5.7 3.3 2.5-0.7 4-3.2 3.3-5.7-0.7-2.5-3.2-4-5.7-3.3-2.5 0.7-4 3.2-3.3 5.7z"/>
	<text id="Glide" style="transform: matrix(1,0,0,1,28.667,27)" >
		<tspan x="0" y="0" class="t1"> </tspan><tspan  y="0" class="t1">G</tspan><tspan  y="0" class="t1">l</tspan><tspan  y="0" class="t1">i</tspan><tspan  y="0" class="t1">d</tspan><tspan  y="0" class="t1">e</tspan><tspan  y="0" class="t1">
</tspan>
	</text>
	<text id="" style="transform: matrix(1,0,0,1,127,25)" >
	</text>
</svg>